<svg width="113" height="23" viewBox="0 0 113 23" fill="none" xmlns="http://www.w3.org/2000/svg">
<path d="M3.50781 0.671875V22H0.680664V0.671875H3.50781ZM29.0254 15.2178H31.8379C31.6914 16.5654 31.3057 17.7715 30.6807 18.8359C30.0557 19.9004 29.1719 20.7451 28.0293 21.3701C26.8867 21.9854 25.4609 22.293 23.752 22.293C22.502 22.293 21.3643 22.0586 20.3389 21.5898C19.3232 21.1211 18.4492 20.457 17.7168 19.5977C16.9844 18.7285 16.418 17.6885 16.0176 16.4775C15.627 15.2568 15.4316 13.8994 15.4316 12.4053V10.2812C15.4316 8.78711 15.627 7.43457 16.0176 6.22363C16.418 5.00293 16.9893 3.95801 17.7314 3.08887C18.4834 2.21973 19.3867 1.55078 20.4414 1.08203C21.4961 0.613281 22.6826 0.378906 24.001 0.378906C25.6123 0.378906 26.9746 0.681641 28.0879 1.28711C29.2012 1.89258 30.0654 2.73242 30.6807 3.80664C31.3057 4.87109 31.6914 6.10645 31.8379 7.5127H29.0254C28.8887 6.5166 28.6348 5.66211 28.2637 4.94922C27.8926 4.22656 27.3652 3.66992 26.6816 3.2793C25.998 2.88867 25.1045 2.69336 24.001 2.69336C23.0537 2.69336 22.2188 2.87402 21.4961 3.23535C20.7832 3.59668 20.1826 4.10938 19.6943 4.77344C19.2158 5.4375 18.8545 6.2334 18.6104 7.16113C18.3662 8.08887 18.2441 9.11914 18.2441 10.252V12.4053C18.2441 13.4502 18.3516 14.4316 18.5664 15.3496C18.791 16.2676 19.1279 17.0732 19.5771 17.7666C20.0264 18.46 20.5977 19.0068 21.291 19.4072C21.9844 19.7979 22.8047 19.9932 23.752 19.9932C24.9531 19.9932 25.9102 19.8027 26.623 19.4219C27.3359 19.041 27.873 18.4941 28.2344 17.7812C28.6055 17.0684 28.8691 16.2139 29.0254 15.2178ZM57.1211 9.8418V12.1416H45.5781V9.8418H57.1211ZM46.0176 0.671875V22H43.1904V0.671875H46.0176ZM59.582 0.671875V22H56.7695V0.671875H59.582ZM80.2656 2.56152L73.2051 22H70.3193L78.4492 0.671875H80.3096L80.2656 2.56152ZM86.1836 22L79.1084 2.56152L79.0645 0.671875H80.9248L89.084 22H86.1836ZM85.8174 14.1045V16.4189H73.835V14.1045H85.8174ZM105.417 0.671875V22H102.634V0.671875H105.417ZM112.272 0.671875V2.98633H95.793V0.671875H112.272Z" fill="black"/>
</svg>
